<mxfile host="app.diagrams.net" agent="Mozilla/5.0 (Windows NT 10.0; Win64; x64) AppleWebKit/537.36 (KHTML, like Gecko) Chrome/140.0.0.0 Safari/537.36" version="28.2.0">
  <diagram name="Page-1" id="N33fwwnkQMy7bgpvIE5g">
    <mxGraphModel grid="1" page="1" gridSize="10" guides="1" tooltips="1" connect="1" arrows="1" fold="1" pageScale="1" pageWidth="850" pageHeight="1100" math="0" shadow="0">
      <root>
        <mxCell id="0" />
        <mxCell id="1" parent="0" />
        <mxCell id="AS0qvoNGoM10aMB2myEc-37" style="edgeStyle=orthogonalEdgeStyle;rounded=0;orthogonalLoop=1;jettySize=auto;html=1;exitX=1;exitY=0;exitDx=0;exitDy=0;entryX=0;entryY=0;entryDx=0;entryDy=0;" edge="1" parent="1" source="AS0qvoNGoM10aMB2myEc-1" target="AS0qvoNGoM10aMB2myEc-2">
          <mxGeometry relative="1" as="geometry" />
        </mxCell>
        <mxCell id="AS0qvoNGoM10aMB2myEc-1" value="Start" style="ellipse;whiteSpace=wrap;html=1;" vertex="1" parent="1">
          <mxGeometry x="320" y="60" width="120" height="80" as="geometry" />
        </mxCell>
        <mxCell id="AS0qvoNGoM10aMB2myEc-36" style="edgeStyle=orthogonalEdgeStyle;rounded=0;orthogonalLoop=1;jettySize=auto;html=1;exitX=1;exitY=0;exitDx=0;exitDy=0;entryX=0;entryY=0;entryDx=0;entryDy=0;" edge="1" parent="1" source="AS0qvoNGoM10aMB2myEc-2" target="AS0qvoNGoM10aMB2myEc-6">
          <mxGeometry relative="1" as="geometry" />
        </mxCell>
        <mxCell id="AS0qvoNGoM10aMB2myEc-2" value="Declaration" style="swimlane;whiteSpace=wrap;html=1;" vertex="1" parent="1">
          <mxGeometry x="460" y="60" width="200" height="310" as="geometry" />
        </mxCell>
        <mxCell id="AS0qvoNGoM10aMB2myEc-31" style="edgeStyle=orthogonalEdgeStyle;rounded=0;orthogonalLoop=1;jettySize=auto;html=1;exitX=0.5;exitY=1;exitDx=0;exitDy=0;entryX=0.5;entryY=0;entryDx=0;entryDy=0;" edge="1" parent="AS0qvoNGoM10aMB2myEc-2" source="AS0qvoNGoM10aMB2myEc-3" target="AS0qvoNGoM10aMB2myEc-4">
          <mxGeometry relative="1" as="geometry" />
        </mxCell>
        <mxCell id="AS0qvoNGoM10aMB2myEc-3" value="workHours to 0" style="rounded=0;whiteSpace=wrap;html=1;" vertex="1" parent="AS0qvoNGoM10aMB2myEc-2">
          <mxGeometry x="20" y="30" width="160" height="30" as="geometry" />
        </mxCell>
        <mxCell id="AS0qvoNGoM10aMB2myEc-32" style="edgeStyle=orthogonalEdgeStyle;rounded=0;orthogonalLoop=1;jettySize=auto;html=1;exitX=0.5;exitY=1;exitDx=0;exitDy=0;entryX=0.5;entryY=0;entryDx=0;entryDy=0;" edge="1" parent="AS0qvoNGoM10aMB2myEc-2" source="AS0qvoNGoM10aMB2myEc-4" target="AS0qvoNGoM10aMB2myEc-5">
          <mxGeometry relative="1" as="geometry" />
        </mxCell>
        <mxCell id="AS0qvoNGoM10aMB2myEc-4" value="wholesaleMaterialCost to 0" style="rounded=0;whiteSpace=wrap;html=1;" vertex="1" parent="AS0qvoNGoM10aMB2myEc-2">
          <mxGeometry x="20" y="70" width="160" height="30" as="geometry" />
        </mxCell>
        <mxCell id="AS0qvoNGoM10aMB2myEc-33" style="edgeStyle=orthogonalEdgeStyle;rounded=0;orthogonalLoop=1;jettySize=auto;html=1;exitX=0.5;exitY=1;exitDx=0;exitDy=0;entryX=0.5;entryY=0;entryDx=0;entryDy=0;" edge="1" parent="AS0qvoNGoM10aMB2myEc-2" source="AS0qvoNGoM10aMB2myEc-5" target="AS0qvoNGoM10aMB2myEc-13">
          <mxGeometry relative="1" as="geometry" />
        </mxCell>
        <mxCell id="AS0qvoNGoM10aMB2myEc-5" value="overallCost to 0" style="rounded=0;whiteSpace=wrap;html=1;" vertex="1" parent="AS0qvoNGoM10aMB2myEc-2">
          <mxGeometry x="20" y="110" width="160" height="30" as="geometry" />
        </mxCell>
        <mxCell id="AS0qvoNGoM10aMB2myEc-13" value="finalMaterialCost&amp;nbsp;&lt;span style=&quot;color: rgba(0, 0, 0, 0); font-family: monospace; font-size: 0px; text-align: start; text-wrap-mode: nowrap;&quot;&gt;%3CmxGraphModel%3E%3Croot%3E%3CmxCell%20id%3D%220%22%2F%3E%3CmxCell%20id%3D%221%22%20parent%3D%220%22%2F%3E%3CmxCell%20id%3D%222%22%20value%3D%22overalCost%20to%200%22%20style%3D%22rounded%3D0%3BwhiteSpace%3Dwrap%3Bhtml%3D1%3B%22%20vertex%3D%221%22%20parent%3D%221%22%3E%3CmxGeometry%20x%3D%22480%22%20y%3D%22170%22%20width%3D%22160%22%20height%3D%2230%22%20as%3D%22geometry%22%2F%3E%3C%2FmxCell%3E%3C%2Froot%3E%3C%2FmxGraphModel%3E&lt;/span&gt;to 0" style="rounded=0;whiteSpace=wrap;html=1;" vertex="1" parent="AS0qvoNGoM10aMB2myEc-2">
          <mxGeometry x="20" y="150" width="160" height="30" as="geometry" />
        </mxCell>
        <mxCell id="AS0qvoNGoM10aMB2myEc-25" style="edgeStyle=orthogonalEdgeStyle;rounded=0;orthogonalLoop=1;jettySize=auto;html=1;exitX=1;exitY=0;exitDx=0;exitDy=0;entryX=0;entryY=0.5;entryDx=0;entryDy=0;" edge="1" parent="1" source="AS0qvoNGoM10aMB2myEc-6" target="AS0qvoNGoM10aMB2myEc-17">
          <mxGeometry relative="1" as="geometry" />
        </mxCell>
        <mxCell id="AS0qvoNGoM10aMB2myEc-6" value="Calcuating_total_cost" style="swimlane;whiteSpace=wrap;html=1;startSize=20;" vertex="1" parent="1">
          <mxGeometry x="700" y="60" width="340" height="360" as="geometry" />
        </mxCell>
        <mxCell id="AS0qvoNGoM10aMB2myEc-26" style="edgeStyle=orthogonalEdgeStyle;rounded=0;orthogonalLoop=1;jettySize=auto;html=1;exitX=0.5;exitY=1;exitDx=0;exitDy=0;entryX=0.5;entryY=0;entryDx=0;entryDy=0;" edge="1" parent="AS0qvoNGoM10aMB2myEc-6">
          <mxGeometry relative="1" as="geometry">
            <mxPoint x="165" y="80" as="sourcePoint" />
            <mxPoint x="165" y="90" as="targetPoint" />
          </mxGeometry>
        </mxCell>
        <mxCell id="AS0qvoNGoM10aMB2myEc-27" style="edgeStyle=orthogonalEdgeStyle;rounded=0;orthogonalLoop=1;jettySize=auto;html=1;exitX=0.5;exitY=1;exitDx=0;exitDy=0;entryX=0.5;entryY=0;entryDx=0;entryDy=0;" edge="1" parent="AS0qvoNGoM10aMB2myEc-6" target="AS0qvoNGoM10aMB2myEc-15">
          <mxGeometry relative="1" as="geometry">
            <mxPoint x="165" y="140" as="sourcePoint" />
          </mxGeometry>
        </mxCell>
        <mxCell id="AS0qvoNGoM10aMB2myEc-29" style="edgeStyle=orthogonalEdgeStyle;rounded=0;orthogonalLoop=1;jettySize=auto;html=1;exitX=0.5;exitY=1;exitDx=0;exitDy=0;entryX=0.5;entryY=0;entryDx=0;entryDy=0;" edge="1" parent="AS0qvoNGoM10aMB2myEc-6" source="AS0qvoNGoM10aMB2myEc-7" target="AS0qvoNGoM10aMB2myEc-16">
          <mxGeometry relative="1" as="geometry" />
        </mxCell>
        <mxCell id="AS0qvoNGoM10aMB2myEc-7" value="finalMaterialCost=(wholesaleMaterialCost*1.20)" style="rounded=0;whiteSpace=wrap;html=1;" vertex="1" parent="AS0qvoNGoM10aMB2myEc-6">
          <mxGeometry x="15" y="210" width="310" height="50" as="geometry" />
        </mxCell>
        <mxCell id="AS0qvoNGoM10aMB2myEc-28" style="edgeStyle=orthogonalEdgeStyle;rounded=0;orthogonalLoop=1;jettySize=auto;html=1;exitX=0.5;exitY=1;exitDx=0;exitDy=0;entryX=0.5;entryY=0;entryDx=0;entryDy=0;" edge="1" parent="AS0qvoNGoM10aMB2myEc-6" source="AS0qvoNGoM10aMB2myEc-15" target="AS0qvoNGoM10aMB2myEc-7">
          <mxGeometry relative="1" as="geometry" />
        </mxCell>
        <mxCell id="AS0qvoNGoM10aMB2myEc-15" value="finalLaborCost=(workHours*30)" style="rounded=0;whiteSpace=wrap;html=1;" vertex="1" parent="AS0qvoNGoM10aMB2myEc-6">
          <mxGeometry x="15" y="150" width="310" height="50" as="geometry" />
        </mxCell>
        <mxCell id="AS0qvoNGoM10aMB2myEc-30" style="edgeStyle=orthogonalEdgeStyle;rounded=0;orthogonalLoop=1;jettySize=auto;html=1;exitX=1;exitY=0.75;exitDx=0;exitDy=0;" edge="1" parent="AS0qvoNGoM10aMB2myEc-6" source="AS0qvoNGoM10aMB2myEc-16">
          <mxGeometry relative="1" as="geometry">
            <mxPoint x="370" y="40" as="targetPoint" />
          </mxGeometry>
        </mxCell>
        <mxCell id="AS0qvoNGoM10aMB2myEc-16" value="overallCost=finalMaterialCost+finalLaborCost" style="rounded=0;whiteSpace=wrap;html=1;" vertex="1" parent="AS0qvoNGoM10aMB2myEc-6">
          <mxGeometry x="15" y="270" width="310" height="50" as="geometry" />
        </mxCell>
        <mxCell id="AS0qvoNGoM10aMB2myEc-41" value="PROMPT &quot;Enter the hours of labor: &quot;&lt;div&gt;GET workHours&lt;br&gt;&lt;div&gt;&lt;br&gt;&lt;/div&gt;&lt;/div&gt;" style="shape=parallelogram;perimeter=parallelogramPerimeter;whiteSpace=wrap;html=1;fixedSize=1;" vertex="1" parent="AS0qvoNGoM10aMB2myEc-6">
          <mxGeometry x="10" y="30" width="320" height="50" as="geometry" />
        </mxCell>
        <mxCell id="AS0qvoNGoM10aMB2myEc-42" value="PROMPT &quot;Enter the wholesale cost of materials: &quot;&lt;div&gt;GET materialCost&lt;/div&gt;" style="shape=parallelogram;perimeter=parallelogramPerimeter;whiteSpace=wrap;html=1;fixedSize=1;" vertex="1" parent="AS0qvoNGoM10aMB2myEc-6">
          <mxGeometry y="90" width="330" height="50" as="geometry" />
        </mxCell>
        <mxCell id="AS0qvoNGoM10aMB2myEc-35" style="edgeStyle=orthogonalEdgeStyle;rounded=0;orthogonalLoop=1;jettySize=auto;html=1;exitX=1;exitY=0.5;exitDx=0;exitDy=0;" edge="1" parent="1" source="AS0qvoNGoM10aMB2myEc-14">
          <mxGeometry relative="1" as="geometry">
            <mxPoint x="680" y="50" as="targetPoint" />
          </mxGeometry>
        </mxCell>
        <mxCell id="AS0qvoNGoM10aMB2myEc-14" value="finalLaborCost to 0" style="rounded=0;whiteSpace=wrap;html=1;" vertex="1" parent="1">
          <mxGeometry x="480" y="250" width="160" height="30" as="geometry" />
        </mxCell>
        <mxCell id="AS0qvoNGoM10aMB2myEc-21" style="edgeStyle=orthogonalEdgeStyle;rounded=0;orthogonalLoop=1;jettySize=auto;html=1;exitX=0.5;exitY=1;exitDx=0;exitDy=0;" edge="1" parent="1" source="AS0qvoNGoM10aMB2myEc-17" target="AS0qvoNGoM10aMB2myEc-20">
          <mxGeometry relative="1" as="geometry" />
        </mxCell>
        <mxCell id="AS0qvoNGoM10aMB2myEc-17" value="workHours=0?" style="rhombus;whiteSpace=wrap;html=1;" vertex="1" parent="1">
          <mxGeometry x="1090" y="50" width="110" height="80" as="geometry" />
        </mxCell>
        <mxCell id="AS0qvoNGoM10aMB2myEc-19" value="End" style="ellipse;whiteSpace=wrap;html=1;" vertex="1" parent="1">
          <mxGeometry x="1080" y="350" width="120" height="80" as="geometry" />
        </mxCell>
        <mxCell id="AS0qvoNGoM10aMB2myEc-23" style="edgeStyle=orthogonalEdgeStyle;rounded=0;orthogonalLoop=1;jettySize=auto;html=1;exitX=0.5;exitY=1;exitDx=0;exitDy=0;" edge="1" parent="1" source="AS0qvoNGoM10aMB2myEc-20" target="AS0qvoNGoM10aMB2myEc-22">
          <mxGeometry relative="1" as="geometry" />
        </mxCell>
        <mxCell id="AS0qvoNGoM10aMB2myEc-20" value="Yes" style="text;html=1;align=center;verticalAlign=middle;whiteSpace=wrap;rounded=0;" vertex="1" parent="1">
          <mxGeometry x="1110" y="170" width="60" height="30" as="geometry" />
        </mxCell>
        <mxCell id="AS0qvoNGoM10aMB2myEc-24" style="edgeStyle=orthogonalEdgeStyle;rounded=0;orthogonalLoop=1;jettySize=auto;html=1;exitX=0.5;exitY=1;exitDx=0;exitDy=0;entryX=0.5;entryY=0;entryDx=0;entryDy=0;" edge="1" parent="1" source="AS0qvoNGoM10aMB2myEc-22" target="AS0qvoNGoM10aMB2myEc-19">
          <mxGeometry relative="1" as="geometry" />
        </mxCell>
        <mxCell id="AS0qvoNGoM10aMB2myEc-22" value="&quot;Order information complete. Thank you for working with us!&quot;" style="rounded=0;whiteSpace=wrap;html=1;" vertex="1" parent="1">
          <mxGeometry x="1085" y="260" width="120" height="60" as="geometry" />
        </mxCell>
        <mxCell id="AS0qvoNGoM10aMB2myEc-34" style="edgeStyle=orthogonalEdgeStyle;rounded=0;orthogonalLoop=1;jettySize=auto;html=1;exitX=0.5;exitY=1;exitDx=0;exitDy=0;" edge="1" parent="1" source="AS0qvoNGoM10aMB2myEc-13" target="AS0qvoNGoM10aMB2myEc-14">
          <mxGeometry relative="1" as="geometry" />
        </mxCell>
        <mxCell id="AS0qvoNGoM10aMB2myEc-47" style="edgeStyle=orthogonalEdgeStyle;rounded=0;orthogonalLoop=1;jettySize=auto;html=1;exitX=1;exitY=0;exitDx=0;exitDy=0;entryX=0.25;entryY=0;entryDx=0;entryDy=0;" edge="1" parent="1" source="AS0qvoNGoM10aMB2myEc-38" target="AS0qvoNGoM10aMB2myEc-6">
          <mxGeometry relative="1" as="geometry">
            <Array as="points">
              <mxPoint x="1540" y="-10" />
              <mxPoint x="700" y="-10" />
              <mxPoint x="700" y="60" />
            </Array>
          </mxGeometry>
        </mxCell>
        <mxCell id="AS0qvoNGoM10aMB2myEc-38" value="Output" style="swimlane;whiteSpace=wrap;html=1;" vertex="1" parent="1">
          <mxGeometry x="1260" y="60" width="280" height="360" as="geometry" />
        </mxCell>
        <mxCell id="AS0qvoNGoM10aMB2myEc-40" value="PUT &quot;Total cost of materials: &quot;&amp;nbsp;&lt;div&gt;+finalMaterialCost&lt;/div&gt;" style="shape=parallelogram;perimeter=parallelogramPerimeter;whiteSpace=wrap;html=1;fixedSize=1;" vertex="1" parent="AS0qvoNGoM10aMB2myEc-38">
          <mxGeometry x="10" y="40" width="260" height="40" as="geometry" />
        </mxCell>
        <mxCell id="AS0qvoNGoM10aMB2myEc-46" style="edgeStyle=orthogonalEdgeStyle;rounded=0;orthogonalLoop=1;jettySize=auto;html=1;exitX=0.5;exitY=1;exitDx=0;exitDy=0;entryX=0.5;entryY=0;entryDx=0;entryDy=0;" edge="1" parent="AS0qvoNGoM10aMB2myEc-38" source="AS0qvoNGoM10aMB2myEc-43" target="AS0qvoNGoM10aMB2myEc-44">
          <mxGeometry relative="1" as="geometry" />
        </mxCell>
        <mxCell id="AS0qvoNGoM10aMB2myEc-43" value="PUT &quot;Total cost of labor: &quot;&lt;div&gt;+finalLaborCost&lt;/div&gt;" style="shape=parallelogram;perimeter=parallelogramPerimeter;whiteSpace=wrap;html=1;fixedSize=1;" vertex="1" parent="AS0qvoNGoM10aMB2myEc-38">
          <mxGeometry y="90" width="260" height="40" as="geometry" />
        </mxCell>
        <mxCell id="AS0qvoNGoM10aMB2myEc-48" style="edgeStyle=orthogonalEdgeStyle;rounded=0;orthogonalLoop=1;jettySize=auto;html=1;exitX=1;exitY=0.5;exitDx=0;exitDy=0;" edge="1" parent="AS0qvoNGoM10aMB2myEc-38" source="AS0qvoNGoM10aMB2myEc-44">
          <mxGeometry relative="1" as="geometry">
            <mxPoint x="280" y="-20" as="targetPoint" />
            <Array as="points">
              <mxPoint x="321" y="160" />
              <mxPoint x="321" y="-20" />
            </Array>
          </mxGeometry>
        </mxCell>
        <mxCell id="AS0qvoNGoM10aMB2myEc-44" value="PUT &quot;Total overall cost: &quot;&lt;div&gt;+overalCost&lt;/div&gt;" style="shape=parallelogram;perimeter=parallelogramPerimeter;whiteSpace=wrap;html=1;fixedSize=1;" vertex="1" parent="AS0qvoNGoM10aMB2myEc-38">
          <mxGeometry y="140" width="260" height="40" as="geometry" />
        </mxCell>
        <mxCell id="AS0qvoNGoM10aMB2myEc-45" style="edgeStyle=orthogonalEdgeStyle;rounded=0;orthogonalLoop=1;jettySize=auto;html=1;exitX=0.5;exitY=1;exitDx=0;exitDy=0;entryX=0.533;entryY=0.083;entryDx=0;entryDy=0;entryPerimeter=0;" edge="1" parent="AS0qvoNGoM10aMB2myEc-38" source="AS0qvoNGoM10aMB2myEc-40" target="AS0qvoNGoM10aMB2myEc-43">
          <mxGeometry relative="1" as="geometry" />
        </mxCell>
        <mxCell id="AS0qvoNGoM10aMB2myEc-39" style="edgeStyle=orthogonalEdgeStyle;rounded=0;orthogonalLoop=1;jettySize=auto;html=1;exitX=1;exitY=0.5;exitDx=0;exitDy=0;entryX=0.012;entryY=0.039;entryDx=0;entryDy=0;entryPerimeter=0;" edge="1" parent="1" source="AS0qvoNGoM10aMB2myEc-17" target="AS0qvoNGoM10aMB2myEc-38">
          <mxGeometry relative="1" as="geometry" />
        </mxCell>
      </root>
    </mxGraphModel>
  </diagram>
</mxfile>
